<?xml version="1.0" encoding="UTF-8" standalone="no"?>
<!DOCTYPE svg PUBLIC "-//W3C//DTD SVG 1.1//EN" "http://www.w3.org/Graphics/SVG/1.1/DTD/svg11.dtd">
<svg width="100%" height="100%" viewBox="0 0 1448 1086" version="1.1" xmlns="http://www.w3.org/2000/svg" xmlns:xlink="http://www.w3.org/1999/xlink" xml:space="preserve" xmlns:serif="http://www.serif.com/" style="fill-rule:evenodd;clip-rule:evenodd;stroke-linejoin:round;stroke-miterlimit:2;">
    <g id="Background" transform="matrix(1.414062,0,0,1.414062,0,0)">
        <path d="M999.5,767.999L0,767.999C-0.929,766.273 -0,766.121 0,743.5L0,0C1.496,-1.266 1.81,0 24.5,0L1023.999,0C1025.156,2.148 1023.999,2.338 1023.999,30.5L1023.999,767.999C1022.503,769.265 1022.19,767.999 999.5,767.999Z" style="fill:rgb(253,251,248);"/>
        <path d="M246.497,245.475C263.816,254.046 274.004,255.175 276.519,255.453C279.451,255.778 277.313,258.967 280.501,259.345C281.483,259.461 288.936,260.345 292.412,262.641C299.522,267.337 303.273,267.411 309.264,272.777C330.464,291.764 331.734,295.501 329.469,314.498C329.173,316.985 328.918,319.123 338.809,344.379C340.177,347.872 347.441,343.274 352.457,343.9C354.827,344.196 379.229,342.996 379.607,342.589C380.866,341.234 378.737,286.835 380.716,282.595C385.399,272.565 389.381,277.754 498.507,281.239C514.859,281.761 513.603,287.165 513.649,303.499C513.723,329.329 513.854,432.62 513.717,433.526C511.612,447.392 495.424,441.525 463.498,441.908C460.392,441.945 460.686,444.477 457.255,447.187C452.307,451.094 433.066,452.293 432.562,452.183C425.422,450.624 419.255,454.966 408.353,444.648C407.092,443.454 404.298,444.849 401.899,443.002C393.739,436.72 389.065,444.063 382.699,437.323C379.091,433.503 374.659,433.893 360.602,428.251C333.16,417.235 332.45,414.027 331.874,411.426C331.025,407.594 329.83,408.568 327.642,408.014C321.629,406.491 315.73,398.005 316.187,393.469C316.907,386.327 313.258,392.098 313.146,392.332C309.618,399.721 303.92,398.232 300.503,398.521C298.849,398.66 299.451,399.435 297.693,407.557C296.573,412.73 278.769,409.826 268.497,409.422C262.285,409.177 268.291,411.634 268.468,411.652C286.442,413.403 286.439,413.59 294.426,412.829C297.62,412.525 295.513,417.307 296.813,418.076C306.692,423.914 308.169,425.951 303.115,446.415C302.647,448.31 304.268,450.504 305.318,453.552C309.034,464.328 306.684,525.56 306.64,526.507C302.744,609.239 301.357,609.081 300.08,635.485C299.631,644.765 306.652,644.821 316.3,648.976C334.095,656.64 330.459,665.12 334.514,665.276C335.516,665.315 395.924,665.299 403.499,665.292C458.025,665.243 458.965,665.987 460.326,663.426C465.201,654.252 472.472,654.822 482.549,652.703C487.124,651.74 499.456,643.143 501.313,640.389C501.675,639.851 505.531,634.131 505.615,633.518C505.886,631.545 500.753,632.646 501.913,626.573C504.177,614.715 510.519,574.808 511.755,568.375C512.46,564.884 512.562,564.943 512.567,564.637C514.656,561.302 517.044,535.414 521.19,522.389C525.194,509.811 537.732,504.204 545.509,505.387C555.503,506.909 560.358,511.254 568.528,519.474C570.505,521.464 608.826,560.525 613.519,562.391C618.086,564.206 608.986,555.976 608.48,555.519C570.646,521.307 568.135,508.879 546.392,502.632C546.042,501.415 539.546,478.81 539.315,488.467C539.26,490.736 543.123,497.243 543.643,502.744C541.515,502.915 527.711,504.025 520.92,516.722C515.635,526.601 511.179,561.494 511.508,564.494C510.678,566.909 510.573,566.809 510.426,568.181C506.055,573.456 503.829,575.217 483.111,602.191C478.487,608.211 475.22,596.727 470.916,601.862C463.343,610.897 462.602,610.862 462.859,615.496C463.114,620.089 449.282,644.368 443.534,643.27C441.718,642.924 437.421,642.103 423.928,631.028C419.489,627.385 422.979,625.015 421.245,623.833C419.437,622.602 399.717,616 383.857,595.21C380.663,591.023 374.435,584.179 382.645,578.738C394.297,571.017 399.371,588.985 425.518,587.96C428.503,587.843 428.914,588.803 432.511,587.53C437.656,585.709 437.833,584.73 442.741,587.034C444.477,587.849 451.661,581.467 449.292,578.681C445.764,574.531 448.499,573.808 464.869,548.733C519.216,465.486 519.17,465.01 526.614,460.698C547.159,448.795 571.432,472.02 572.183,467.423C572.352,466.389 570.753,460.399 574.809,448.604C589.048,407.197 591.012,408.01 592.171,404.391C594.95,395.716 593.881,393.001 599.562,390.643C603.085,389.18 611.095,353.758 617.419,351.29C619.571,350.45 628.691,349.392 628.716,347.534C628.821,339.743 628.837,339.822 630.599,330.516C630.857,329.156 630.012,327.428 630.955,324.661C631.886,321.928 632.392,321.68 630.535,319.469C627.803,316.217 630.466,313.943 629.249,312.723C622.64,306.098 625.886,304.784 625.256,295.497C624.877,289.896 635.344,293.011 636.239,291.387C640.044,284.475 639.198,284.158 643.102,277.296C644.768,274.369 633.789,271.802 633.776,262.51C633.768,257.594 637.072,261.766 637.246,261.986C642.348,268.429 637.24,258.542 637.56,253.504C637.871,248.615 642.144,241.26 644.199,247.598C644.32,247.971 649.821,257.387 650.338,249.484C650.84,241.799 659.597,237.483 659.742,241.476C659.764,242.094 660.126,252.076 662.677,248.633C662.872,248.371 662.493,245.156 664.621,243.711C668.862,240.831 667.278,255.843 683.484,257.661C684.502,257.775 706.125,257.935 710.675,276.418C710.906,276.56 711.136,276.702 711.367,276.844C711.685,276.777 711.945,277.294 712.264,277.228C713.04,277.065 713.701,272.019 713.762,271.554C714.52,265.757 721.261,274.979 715.106,281.236C713.137,283.237 714.896,283.439 717.55,284.394C729.891,288.835 723.884,310.339 722.657,300.393C722.637,300.226 720.07,294.576 720.561,300.505C721.834,315.88 712.552,317.848 698.931,341.721C698.417,342.622 698.831,348.907 700.539,349.371C707.057,351.141 706.12,352.568 709.095,358.686C711.971,364.599 721.506,367.468 737.189,378.916C769.243,402.312 749.19,426.988 757.515,427.091C797.174,427.584 785.604,447.548 771.992,512.585C771.54,514.749 771.327,515.782 773.479,515.339C804.601,508.932 814.225,517.914 822.482,515.431C825.62,514.488 828.831,499.677 827.149,497.829C818.182,487.973 832.112,479.172 838.168,487.728C843.384,495.099 833.429,499.045 832.461,499.428C830.87,500.059 827.863,514.671 828.178,515.618C829.292,518.968 830.431,517.772 838.409,520.762C870.343,532.728 862.961,546.601 866.09,557.617C868.955,567.706 863.534,571.124 860.633,580.542C854.215,601.387 832.315,598.174 832.279,598.186C822.22,601.56 843.137,595.899 849.116,607.678C851.695,612.76 853.508,611.482 855.618,616.444C864.782,637.994 857.532,645.125 855.799,646.83C854.846,647.768 854.216,648.387 855.089,663.531C855.274,666.757 857.213,665.018 897.501,665.409C903.578,665.468 901.315,669.159 899.474,669.324C895.77,669.657 484.578,669.677 448.5,669.678C128.154,669.694 127.982,669.615 127.167,668.792C122.347,663.926 137.598,665.66 189.494,665.282C194.047,665.249 192.26,663.034 192.956,658.592C210.067,549.405 212.986,467.212 214.64,462.547C216.226,458.073 216.216,457.962 214.807,453.405C210.953,440.935 215.889,420.686 225.652,415.786C230.921,413.142 234.081,416.408 234.748,410.538C235.427,404.557 251.418,411.316 249.056,407.648C246.706,403.999 238.264,410.506 234.712,401.417C233.689,398.8 229.756,405.436 219.69,396.299C208.988,386.584 202.514,325.485 200.233,322.734C183.889,303.02 194.927,274.862 211.832,261.967C216.583,258.343 229.904,254.19 238.501,254.199C243.79,254.205 242.212,251.65 245.412,247.469C245.773,246.805 246.135,246.14 246.497,245.475Z" style="fill:rgb(16,16,13);"/>
        <path d="M401.502,437.1C393.902,436.885 385.644,437.911 383.908,432.345C382.413,427.552 383.416,362.568 383.509,356.501C383.565,352.88 388.87,354.061 390.107,349.413C391.212,345.263 385.203,343.504 384.57,343.319C382.833,342.81 383.25,340.723 383.222,320.5C383.173,284.406 381.984,280.09 390.507,280.334C398.271,280.556 443.443,281.848 487.514,284.318C503.411,285.209 507.631,283.892 510.006,289.669C511.362,292.966 510.421,420.156 510.337,431.502C510.265,441.233 503.327,438.789 473.503,438.349C466.831,438.25 462.779,440.955 464.046,434.405C465.556,426.604 459.619,425.46 456.615,427.754C453.906,429.824 454.205,420.803 448.388,423.193C443.511,425.197 442.207,421.75 438.651,425.635C436.457,428.032 435.691,425.514 432.584,426.731C428.08,428.495 426.241,436.055 426.132,436.284C425.512,437.581 425.046,437.505 401.502,437.1Z" style="fill:rgb(253,251,248);"/>
        <path d="M690.542,462.521C688.994,467.148 689.484,467.339 686.464,471.465C683.76,475.159 682.963,474.191 669.506,474.63C647.139,475.36 640.613,474.311 636.538,475.598C632.427,476.896 632.011,472.016 624.531,475.56C615.958,479.621 622.459,467.313 622.798,466.673C627.429,457.906 621.376,455.933 625.851,423.551C625.98,422.618 627.885,408.836 624.817,411.828C624.356,412.278 621.177,431.448 620.736,443.533C620.387,453.119 617.154,442.161 617.144,441.503C616.987,431.501 620.53,424.581 619.482,412.501C619.281,410.189 621.672,406.387 621.694,399.496C621.699,397.956 621.706,395.835 632.727,383.712C635.51,380.651 636.862,382.713 639.767,379.742C640.114,379.388 651.196,372.452 650.549,375.495C650.474,375.846 649.015,379.584 648.193,385.464C647.754,388.6 650.08,389.583 652.286,387.269C654.957,384.467 656.193,379.718 658.891,385.305C662.56,392.904 664.788,391.063 672.63,387.817C677.382,385.851 678.108,383.545 680.172,386.704C685.237,394.461 687.244,389.285 693.786,382.771C704.448,372.153 704.022,371.809 708.747,366.734C710.247,365.123 711.251,365.018 732.789,380.098C751.906,393.482 756.25,403.293 750.02,439.425C749.533,442.249 747.965,441.56 746.787,444.613C745.119,448.934 737.418,473.706 723.936,498.745C715.958,513.56 713.825,512.105 705.489,513.438C700.147,514.292 700.366,517.019 691.553,516.042C673.377,514.028 646.519,506.313 646.15,504.607C645.789,502.936 646.679,502.993 649.316,483.474C650.372,475.656 653.54,478.31 661.496,478.216C685.945,477.927 689.212,474.12 696.968,487.123C698.302,489.358 699.418,485.727 701.598,487.314C703.592,488.767 705.182,486.397 702.147,483.871C694.592,477.584 689.786,475.49 690.496,474.496C692.466,471.74 702.544,477.983 703.468,478.555C708.594,481.731 705.763,472.664 695.501,471.491C692.489,471.147 690.917,471.477 691.949,468.651C706.183,429.672 708.191,409.381 720.928,398.943C725.159,395.476 725.622,395.73 725.628,394.493C725.648,390.238 710.789,400.789 705.849,417.648C705.741,418.017 701.33,433.066 702.891,421.441C702.98,420.773 706.566,407.877 702.481,412.482C699.427,415.923 700.451,429.97 700.562,431.495C700.693,433.297 691.785,459.361 690.542,462.521Z" style="fill:rgb(246,119,30);"/>
        <path d="M241.733,239.358C241.371,238.608 240.047,237.845 241.228,231.441C242.555,224.245 236.861,226.517 230.835,215.318C227.413,208.961 225.316,210.918 220.852,205.225C208.952,190.049 222.983,173.761 223.064,173.409C228.791,148.49 237.892,152.098 238.881,146.572C239.894,140.905 239.566,140.439 244.355,137.245C245.736,136.324 246.681,135.693 245.382,116.518C245.242,114.454 241.836,114.229 240.372,111.577C234.327,100.631 250.467,93.761 254.588,103.461C257.812,111.051 249.514,115.493 249.506,115.504C248.614,116.736 248.811,116.874 249.302,134.517C249.379,137.274 252.245,136.725 254.337,138.677C254.839,139.144 255.229,139.727 255.758,140.163C256.635,140.887 270.4,138.046 287.547,142.337C324.765,151.651 349.876,172.575 344.721,207.527C335.958,266.944 288.4,249.921 285.569,249.229C281.942,248.341 280.551,246.944 279.798,250.576C279.564,251.705 278.595,256.373 265.383,250.711C260.884,248.783 243.533,240.431 241.733,239.358Z" style="fill:rgb(16,16,14);"/>
        <path d="M255.967,587.528C252.605,642.572 252.169,643.093 254.813,646.242C256.57,648.334 275.744,657.819 273.61,664.562C273.387,665.268 273.02,665.402 209.499,665.307C202.583,665.296 195.762,666.427 196.225,662.48C196.876,656.94 199.201,650.002 210.467,551.497C219.699,470.784 212.049,460.278 227.742,451.991C233.124,449.15 262.132,445.797 260.531,486.501C258.542,537.084 258.498,537.006 255.967,587.528Z" style="fill:rgb(253,251,248);"/>
        <path d="M256.241,208.29C269.999,191.76 259.309,176.794 255.452,173.554C242.142,162.375 229.377,170.88 228.443,170.894C225.979,170.931 230.13,159.006 238.822,151.881C266.25,129.398 354.649,153.691 340.679,211.546C330.681,252.951 307.665,253.399 274.321,241.932C273.818,241.009 275.003,240.99 274.5,240.068C274.401,239.887 274.392,239.87 272.449,238.5C261.006,230.43 259.169,222.724 257.289,210.502C257.095,209.238 256.786,209.44 256.241,208.29Z" style="fill:rgb(252,251,248);"/>
        <path d="M274.305,485.1C302.743,475.002 300.992,439.932 302.8,457.438C306.286,491.209 299.97,580.774 299.215,591.474C295.782,640.168 296.293,640.874 298.768,644.299C302.716,649.761 324.103,652.313 328.36,663.546C329.605,666.83 326.485,665.338 284.498,665.309C283.522,665.309 278.228,666.132 277.411,663.529C274.909,655.561 273.968,654.425 264.471,648.548C266.438,642.699 270.258,547.263 272.275,525.481C272.563,522.366 275.762,487.814 275.454,486.5C275.316,485.912 274.442,485.688 274.305,485.1Z" style="fill:rgb(209,202,195);"/>
        <path d="M253.89,308.519C253.793,305.024 253.039,277.771 234.587,269.311C217.85,261.636 213.454,268.956 210.413,268.832C205.844,268.646 216.907,263.005 217.581,262.661C236.98,252.771 257.709,268.397 280.558,271.142C292.056,272.523 292.411,272.671 296.616,269.696C298.534,268.339 330.971,283.542 326.078,336.454C324.623,352.18 322.854,351.831 320.482,353.475C317.884,355.274 317.58,351.913 314.492,351.947C313.121,351.962 274.963,358.078 260.501,360.516C257.174,352.525 257.74,315.74 254.979,309.5C254.781,309.053 254.088,308.966 253.89,308.519Z" style="fill:rgb(252,251,248);"/>
        <path d="M849.689,530.24C849.841,530.645 849.222,531.095 849.374,531.5C850.192,533.676 854.873,538.482 852.467,547.324C841.71,550.654 841.668,556.728 840.9,565.507C840.713,565.782 841.141,566.228 840.954,566.503C840.631,566.979 839.924,567.067 839.545,567.5C839.529,567.519 838.249,591.664 810.5,589.713C810.02,589.68 804.533,589.294 804.5,589.308C803.915,589.563 804.046,590.66 803.461,590.915C772.94,588.251 746.741,590.543 752.352,556.481C757.178,527.181 763.108,514.219 798.458,516.921C834.269,519.658 843.114,526.654 849.689,530.24Z" style="fill:rgb(251,249,247);"/>
        <path d="M781.109,444.491C780.874,450.194 782.166,450.398 768.726,511.556C767.489,517.181 767.286,517.216 762.839,520.912C753.702,528.509 755.148,537.516 749.628,543.601C747.172,546.308 744.969,553.32 746.581,557.472C753.484,575.253 733.658,592.464 727.378,595.213C722.697,597.262 717.084,599.72 663.504,595.252C666.278,593.578 666.245,593.56 666.5,593.444C684.671,585.186 686.293,572.139 696.806,543.605C707.884,513.541 719.868,525.725 740.413,522.102C769.309,517.006 769.283,461.357 781.109,444.491Z" style="fill:rgb(209,203,195);"/>
        <path d="M826.932,619.497C826.707,619.736 827.188,620.243 826.963,620.482C826.817,620.636 826.781,620.557 824.513,621.5C822.887,626.323 823.546,635.716 823.574,652.494C823.76,658.939 823.774,658.866 822.478,665.18C810.152,665.179 797.826,665.177 785.499,665.176C762.662,665.166 759.614,665.338 758.363,664.677C755.629,663.234 758.98,612.909 764.802,604.74C766.979,601.685 769.289,598.445 811.54,601.039C829.491,602.141 844.585,603.114 845.086,607.455C845.48,610.868 829.351,597.333 826.932,619.497Z" style="fill:rgb(251,249,246);"/>
        <path d="M411.107,340.54C410.983,338.975 409.882,331.185 413.413,322.462C427.646,287.293 473.411,297.915 481.548,324.484C497.701,377.229 420.151,394.919 411.107,340.54Z" style="fill:rgb(247,121,32);"/>
        <path d="M655.1,650.539C655.791,657.626 657.516,665.041 654.48,665.198C640.455,665.922 586.429,665.257 580.512,665.184C576.704,665.137 580.022,658.637 581.635,653.547C582.312,651.41 598.339,605.279 599.448,603.46C600.71,601.39 614.969,604.49 646.508,605.233C652.253,605.368 649.713,608.694 655.1,650.539Z" style="fill:rgb(252,251,248);"/>
        <path d="M821.613,320.931C818.442,321.557 796.757,325.841 784.782,304.33C763.917,266.849 818.902,231.944 843.067,269.756C849.336,279.566 855.731,310.579 821.613,320.931Z" style="fill:rgb(246,119,31);"/>
        <path d="M662.139,613.525C661.661,606.969 661.24,606.815 662.041,606.037C662.666,605.431 662.675,605.537 663.502,605.527C683.506,605.298 683.416,605.312 703.477,604.09C708.352,603.793 708.001,607.533 709.292,611.568C719.527,643.565 727.215,663.544 725.79,664.837C725.278,665.302 667.478,665.676 666.406,664.594C665.464,663.643 662.411,617.616 662.139,613.525Z" style="fill:rgb(252,251,248);"/>
        <path d="M757.967,566.333C757.488,564.046 756.483,559.245 762.323,537.45C764.855,528 770.392,523.414 811.46,528.75C833.207,531.576 830.116,539.722 827.121,556.436C822.638,581.46 814.718,578.093 789.47,575.756C762.003,573.215 761.367,572.192 757.967,566.333Z" style="fill:rgb(15,15,12);"/>
        <path d="M754.071,498.688C750.89,498.541 751.291,500.894 748.112,505.223C747.789,505.662 743.977,510.854 742.706,509.37C742.455,509.076 753.949,436.821 754.031,436.397C754.853,432.157 754.189,430.569 758.5,430.666C772.619,430.983 779.296,431.729 781.109,444.491C769.283,461.357 769.309,517.006 740.413,522.102C719.868,525.725 707.884,513.541 696.806,543.605C686.293,572.139 684.671,585.186 666.5,593.444C666.245,593.56 666.278,593.578 663.504,595.252C652.806,595.304 647.25,596.368 651.197,594.278C661.326,588.913 668.03,592.59 682.752,546.58C695.1,507.99 707.809,517.789 736.503,515.539C750.88,514.411 754.05,499.746 754.071,498.688Z" style="fill:rgb(237,235,231);"/>
        <path d="M303.497,179.132C307.219,179.34 307.198,179.313 307.517,179.357C335.613,183.211 340.83,191.256 339.29,203.468C334.255,243.393 315.34,237.28 312.45,236.795C291.774,233.327 277.238,228.683 279.768,209.54C284.094,176.808 300.564,179.494 303.497,179.132Z" style="fill:rgb(15,15,12);"/>
        <path d="M582.413,598.898C586.232,600.007 588.768,598.76 587.56,602.517C577.795,632.874 569.363,664.205 567.707,664.889C567.117,665.133 546.552,665.957 545.622,664.428C545.29,663.882 545.323,649.104 542.137,645.833C541.827,645.516 539.011,642.625 540.551,640.527C541.728,638.925 545.946,641.316 546.889,637.625C556.672,599.329 558.818,586.067 559.553,581.525C560.634,574.846 561.044,590.704 575.37,596.77C578.558,598.12 578.578,597.871 582.413,598.898Z" style="fill:rgb(252,250,248);"/>
        <path d="M314.14,365.542C315.167,372.72 315.24,372.633 317.419,379.52C318,381.357 317.259,382.086 295.464,389.399C282.74,393.668 258.877,400.144 255.59,399.166C247.219,396.675 242.431,367.29 257.505,364.528C265.214,363.115 305.4,356.575 309.567,355.897C312.69,355.389 314.22,354.335 314.038,357.436C313.797,361.547 313.78,361.463 314.14,365.542Z" style="fill:rgb(252,251,248);"/>
        <path d="M748.882,575.883C750.976,575.853 750.46,576.68 751.433,578.539C759.818,594.557 782.263,591.38 784.788,594.292C790.375,600.736 768.706,592.331 761.641,603.584C758.37,608.793 756.711,607.045 752.57,611.564C736.965,628.594 736.159,634.321 739.752,640.338C745.001,649.125 754.423,644.877 754.308,648.512C753.835,663.483 754.251,663.502 753.673,664.658C753.096,665.815 752.725,665.471 737.523,665.171C734.224,665.106 735.417,663.247 718.827,604.423C716.463,596.04 734.095,608.052 748.882,575.883Z" style="fill:rgb(252,250,248);"/>
        <path d="M586.315,475.837C585.705,475.538 585.803,475.495 578.734,472.004C571.36,468.361 579.487,445.572 580.256,443.415C591.701,411.32 591.991,409.134 594.351,410.729C606.283,418.793 609.127,416.387 615.489,416.547C616.894,416.583 615.912,423.925 615.827,424.561C611.685,455.519 615.381,456.496 607.044,473.254C605.148,477.064 601.992,474.712 596.352,477.14C591.346,479.295 591.159,478.267 586.315,475.837Z" style="fill:rgb(247,119,30);"/>
        <path d="M245.851,337.444C250.039,359.412 250.484,360.417 248.643,360.81C247.674,361.018 234.263,354.809 219.506,366.507C218.189,367.551 215.316,371.959 214.387,368.549C213.378,364.849 203.469,328.495 205.381,321.463C209.878,304.927 239.551,305.313 242.291,318.549C243.906,326.346 245.585,335.929 245.851,337.444Z" style="fill:rgb(252,251,248);"/>
        <path d="M597.492,570.379C603.254,570.225 666.613,568.532 669.531,569.422C670.426,569.695 671.904,570.732 665.138,580.257C656.706,592.126 651.166,594.275 594.514,593.295C592.079,589.758 591.133,590.415 589.78,586.404C586.777,577.496 594.241,573.148 597.492,570.379Z" style="fill:rgb(252,251,248);"/>
        <path d="M257.407,422.85C281.54,430.79 289.782,430.446 299.466,425.44C306.007,422.058 302.149,473.519 266.505,475.001C262.954,475.148 263.122,472.241 262.3,468.547C260.278,459.464 265.901,458.26 258.123,442.721C258.521,442.148 259.426,442.073 259.825,441.5C261.009,439.796 253.975,431.001 255.059,425.301C255.472,423.131 257.381,422.877 257.407,422.85Z" style="fill:rgb(252,250,248);"/>
        <path d="M398.429,597.576C384.268,583.494 383.745,583.046 384.742,581.698C387.413,578.086 397.651,583.702 398.642,584.246C409.327,590.107 409.616,589.287 414.237,590.973C416.492,591.796 416.53,597.72 418.463,597.866C421.524,598.097 418.631,592.611 419.734,591.928C422.667,590.111 424.979,597.85 425.675,598.169C429.958,600.128 426.189,592.861 427.041,592.017C427.446,591.614 428.79,590.549 431.855,597.294C432.421,598.541 436.76,599.086 434.006,593.744C431.35,588.589 439.299,588.494 441.188,589.917C449.451,596.145 440.712,599.756 443.825,606.341C448.961,617.204 457.694,615.869 458.655,616.287C461.102,617.351 448.524,635.87 446.3,637.127C444.856,637.944 432.108,628.249 431.769,627.419C431.089,625.756 434.185,624.557 430.267,621.839C413.722,610.36 412.779,611.65 398.429,597.576Z" style="fill:rgb(251,250,247);"/>
        <path d="M274.305,485.1C274.442,485.688 275.316,485.912 275.454,486.5C275.762,487.814 272.563,522.366 272.275,525.481C270.258,547.263 266.438,642.699 264.471,648.548C257.823,644.888 259.188,643.365 259.085,630.511C258.705,583.126 263.028,532.01 263.905,492.506C263.916,492.011 264.032,486.742 265.504,486.519C269.933,485.848 269.927,486.192 274.305,485.1Z" style="fill:rgb(179,173,166);"/>
        <path d="M346.829,386.988C349.433,388.677 349.394,389.211 352.505,388.592C356.753,387.748 359.299,391.747 359.63,387.262C369.195,392.726 368.983,392.926 378.685,398.261C380.443,400.143 380.023,400.487 380.091,425.512C380.102,429.39 381.099,431.79 377.485,430.551C351.358,421.592 336.614,413.938 335.477,411.514C334.005,408.376 335.737,402.407 335.957,401.648C338.581,392.602 339.405,392.911 346.829,386.988Z" style="fill:rgb(204,197,190);"/>
        <path d="M541.167,654.55C541.247,655.311 543.22,664.928 540.451,665.195C534.563,665.76 534.587,665.012 466.505,665.257C461.665,665.274 464.801,660.02 472.431,658.218C480.12,656.401 483.078,656.696 488.753,653.997C495.347,650.861 501.525,660.168 500.718,654.458C500.421,652.354 492.407,650.853 496.691,648.875C499.988,647.353 506.695,654.135 507.239,650.41C507.586,648.032 499.365,646.384 501.702,644.827C504.115,643.219 512.829,650.514 512.262,645.546C511.889,642.28 502.069,644.371 506.633,637.579C510.132,632.371 519.309,636.691 520.215,641.554C520.472,642.935 519.43,646.515 526.634,650.217C533.955,653.98 539.679,646.859 540.411,650.525C540.678,651.863 540.899,653.211 541.167,654.55Z" style="fill:rgb(250,249,247);"/>
        <path d="M769.876,634.414C767.844,613.065 786.266,609.466 794.347,612.86C815.314,621.666 803.301,654.106 782.53,648.351C771.823,645.385 770.329,635.671 769.876,634.414Z" style="fill:rgb(247,121,32);"/>
        <path d="M675.203,349.147C681.995,343.307 681.944,340.209 682.904,331.563C683.941,322.219 683.45,321.708 689.977,314.993C698.461,306.264 707.086,317.351 699.297,326.336C691.862,334.913 684.985,328.387 685.618,332.458C685.831,333.826 691.017,334.399 691.512,334.454C694.005,334.73 698.195,353.608 696.434,355.449C686.678,365.648 673.498,366.042 667.13,378.284C664.742,382.873 663.346,375.894 663.877,374.708C665.319,371.491 664.811,371.282 661.427,360.514C661.57,360.514 665.716,360.869 670.091,357.089C671.468,355.898 675.927,350.846 675.998,350.5C676.103,349.988 675.098,349.659 675.203,349.147Z" style="fill:rgb(250,249,248);"/>
        <path d="M201.368,280.428C223.948,252.119 258.34,283.927 247.211,311.365C244.354,318.409 241.401,310.454 241.486,309.499C244.279,278.067 208.138,272.695 201.886,296.541C201.713,297.639 200.553,305.022 201.85,310.432C202.038,311.216 204.906,317.598 202.637,318.755C200.732,319.727 188.454,302.653 201.368,280.428Z" style="fill:rgb(200,194,188);"/>
        <path d="M241.508,172.474C248.762,173.176 261.94,178.777 256.769,198.615C247.583,195.768 249.248,202.214 244.203,206.001C243.798,206.305 240.977,208.423 238.5,208.74C237.315,208.892 237.535,209.269 236.474,209.85C234.899,209.64 232.114,209.947 227.54,206.393C230.615,202.092 226.976,202.196 224.86,197.324C220.156,186.49 229.452,175.366 238.47,176.689C241.353,177.112 242.34,177.381 242.43,174.532C242.47,173.268 242.425,173.277 241.508,172.474Z" style="fill:rgb(247,121,32);"/>
        <path d="M641.478,371.124C638.701,361.937 636.937,362.608 627.433,360.875C624.507,360.342 623.429,363.126 626.463,363.688C627.92,363.958 640.606,364.42 638.478,373.495C637,379.798 629.686,378.748 631.78,375.651C632.419,374.705 635.952,373.791 634.758,371.316C634.565,370.916 634.439,371.077 629.43,369.769C623.178,368.137 631.373,385.298 617.43,391.378C614.608,392.608 619.232,398.908 614.501,398.469C609.698,398.024 602.094,395.871 602.994,392.604C604.269,387.974 614.322,362.082 615.346,359.443C617.559,353.745 618.627,354.266 628.576,351.825C633.079,350.72 645.276,357.897 644.535,363.511C643.641,370.279 643.816,357.524 634.488,355.926C625.064,354.31 619.002,356.473 623.351,357.804C626.597,358.798 639.296,355.41 642.345,367.521C642.854,369.546 643.153,369.834 641.478,371.124Z" style="fill:rgb(248,247,246);"/>
        <path d="M685.911,283.047C686.15,283.57 686.389,284.093 686.628,284.615C672.748,292.845 687.969,308.252 680.598,306.062C669.241,302.686 666.737,302.298 666.857,298.657C667.035,297.634 667.904,292.627 656.455,290.895C653.389,290.431 652.721,291.403 653.822,294.379L653.715,295.923C650.171,295.924 650.236,296.199 647.297,298.091C645.13,299.486 641.742,294.986 641.411,294.547L641.789,293.668C645.788,289.542 641.898,289.165 641.709,287.464C641.633,286.776 646.663,272.826 651.693,275.054C662.041,279.64 671.198,271.824 677.695,278.31C679.375,279.986 681.15,281.468 685.911,283.047Z" style="fill:rgb(251,250,247);"/>
        <path d="M345.454,348.29C346.013,348.173 351.547,347.013 352.54,347.427C353.639,347.886 353.285,350.532 353.718,351.376C355.186,354.241 353.354,354.356 353.583,357.496C354.015,363.41 350.297,364.191 354.28,368.688C367.138,383.207 348.195,382.023 346.877,380.225C344.889,377.513 353.041,378.089 353.173,378.023C356.042,376.578 350.954,373.776 350.718,373.371C350.46,372.927 350.358,372.393 350.05,371.982C349.166,370.803 334.498,378.763 326.782,374.019C325.562,373.269 323.816,372.196 323.249,356.472C323.148,353.657 343.614,348.733 345.454,348.29Z" style="fill:rgb(251,250,248);"/>
        <path d="M451.502,398.124C448.062,398.041 429.093,397.584 408.498,397.359C401.536,397.284 402.983,389.79 406.639,388.992C409.515,388.364 468.152,389.804 473.5,389.935C480.156,390.098 495.041,388.834 491.419,396.454C490.089,399.252 489.054,398.554 451.502,398.124Z" style="fill:rgb(206,200,192);"/>
        <path d="M657.146,331.607C654.19,324.362 652.603,325.711 645.377,322.724C644.115,322.203 645.294,319.296 640.501,319.552C628.089,320.217 633.166,314.168 633.652,313.631C642.897,303.407 642.486,303.117 643.355,302.298C648.769,297.203 640.562,314.843 652.446,317.727C663.188,320.333 664.963,309.384 665.907,306.704C666.886,303.924 681.353,309.516 681.616,310.451C681.876,311.38 680.14,318.187 680.088,318.271C672.958,329.757 671.878,329.032 659.452,334.301C657.315,335.208 657.867,333.748 657.146,331.607Z" style="fill:rgb(251,250,247);"/>
        <path d="M827.467,280.784C827.883,280.859 832.31,281.658 832.463,282.509C832.995,285.459 823.674,289.002 824.481,293.503C825.499,299.181 829.325,307.365 821.701,303.045C818.899,301.457 815.189,298.185 812.597,299.673C807.283,302.724 801.111,308.713 802.97,299.578C804.315,292.97 805.445,292.082 800.446,287.558C800.04,287.19 795.455,283.04 796.761,281.791C798.988,279.662 807.284,282.964 810.053,276.307C811.399,273.074 813.517,264.159 817.106,272.678C817.325,273.198 819.645,278.706 819.985,279.113C821.17,280.532 821.508,279.905 827.467,280.784Z" style="fill:rgb(253,251,248);"/>
        <path d="M458.5,414.539C406.786,413.48 405.087,414.386 403.877,410.397C402.032,404.313 407.286,405.197 435.494,405.771C471.526,406.506 472.522,406.596 473.576,409.47C476.19,416.599 463.343,414.596 458.5,414.539Z" style="fill:rgb(206,200,192);"/>
        <path d="M257.407,422.85C257.381,422.877 255.472,423.131 255.059,425.301C253.975,431.001 261.009,439.796 259.825,441.5C259.426,442.073 258.521,442.148 258.123,442.721C257.121,441.343 249.9,431.421 241.53,429.37C230.163,426.584 221.179,435.535 221.326,437.461C221.378,438.139 221.792,438.748 221.892,439.421C222.047,440.462 219.98,440.228 220.353,452.486C220.387,453.617 218.543,454.915 217.805,451.403C216.942,447.298 213.626,413.572 239.428,417.904C242.84,418.476 247.076,418.982 257.407,422.85Z" style="fill:rgb(200,194,187);"/>
        <path d="M364.224,376.258C364.477,375.888 366.798,372.483 367.005,371.4C368.311,364.584 370.882,362.703 367.196,358.735C363.678,354.947 369.062,355.768 369.531,355.718C374.567,355.19 380.084,353.404 380.039,357.522C379.939,366.78 380.088,393.398 380.087,393.414C380.025,395.593 378.588,393.986 362.668,385.192C356.786,381.943 360.62,380.17 364.224,376.258Z" style="fill:rgb(249,248,246);"/>
        <path d="M840.9,565.507C843.313,580.078 851.246,578.877 855.493,578.411C859.547,577.967 854.189,589.996 845.418,593.278C842.269,594.456 838.009,596.05 803.461,590.915C804.046,590.66 803.915,589.563 804.5,589.308C804.533,589.294 810.02,589.68 810.5,589.713C838.249,591.664 839.529,567.519 839.545,567.5C839.924,567.067 840.631,566.979 840.954,566.503C841.141,566.228 840.713,565.782 840.9,565.507Z" style="fill:rgb(207,201,194);"/>
        <path d="M780.203,336.503C780.647,334.898 780.332,334.74 781.604,333.632C783.83,331.693 784.272,332.618 818.495,332.782C849.13,332.928 851.544,332.08 852.423,335.522C853.716,340.59 850.124,339.877 816.498,339.812C783.225,339.747 781.608,340.776 780.203,336.503Z" style="fill:rgb(247,123,33);"/>
        <path d="M843.567,348.374C843.782,350.912 843.723,350.85 843.449,353.385C838.865,355.072 838.727,354.827 785.489,354.903C778.666,354.912 779.368,347.962 784.525,347.802C786.922,347.727 788.4,347.681 814.498,347.67C840.894,347.658 840.886,347.665 843.567,348.374Z" style="fill:rgb(204,197,189);"/>
        <path d="M256.241,208.29C256.786,209.44 257.095,209.238 257.289,210.502C259.169,222.724 261.006,230.43 272.449,238.5C274.392,239.87 274.401,239.887 274.5,240.068C275.003,240.99 273.818,241.009 274.321,241.932C272.436,241.254 262.414,237.648 251.786,231.023C239.842,223.579 231.728,212.896 236.487,213.702C247.111,215.502 249.439,213.762 256.241,208.29Z" style="fill:rgb(204,197,190);"/>
        <path d="M675.762,372.818C677.931,371.618 694.467,362.468 701.301,355.272C704.136,352.286 707.963,362.675 706.008,365.136C702.656,369.358 686.369,386.513 684.511,386.612C682.688,386.709 679.676,378.73 676.176,374.702C675.486,373.909 675.76,373.877 675.762,372.818Z" style="fill:rgb(251,250,248);"/>
        <path d="M825.45,367.442C821.455,369.306 783.058,369.188 781.466,367.533C780.005,366.015 780.019,361.91 784.502,361.808C789.54,361.693 819.283,361.015 847.499,361.281C853.64,361.338 852.375,365.554 849.507,365.74C842.703,366.182 832.938,365.586 831.5,365.499C828.023,365.287 827.49,364.513 825.45,367.442Z" style="fill:rgb(205,198,190);"/>
        <path d="M543.643,502.744C544.559,502.706 545.476,502.669 546.392,502.632C568.135,508.879 570.646,521.307 608.48,555.519C608.986,555.976 618.086,564.206 613.519,562.391C608.826,560.525 570.505,521.464 568.528,519.474C560.358,511.254 555.503,506.909 545.509,505.387C537.732,504.204 525.194,509.811 521.19,522.389C517.044,535.414 514.656,561.302 512.567,564.637L511.508,564.494C511.179,561.494 515.635,526.601 520.92,516.722C527.711,504.025 541.515,502.915 543.643,502.744Z" style="fill:rgb(230,229,228);"/>
        <path d="M844.493,611.614C845.613,611.727 852.766,610.176 856.514,631.497C856.721,632.674 858.586,643.287 851.526,645.568C842.639,648.441 839.382,642.637 838.395,641.64C839.973,639.764 846.464,632.042 844.493,611.614Z" style="fill:rgb(204,197,189);"/>
        <path d="M597.492,570.379C594.241,573.148 586.777,577.496 589.78,586.404C591.133,590.415 592.079,589.758 594.514,593.295C591.496,593.299 570.665,595.171 571.352,582.495C572.159,567.57 594.376,570.291 597.492,570.379Z" style="fill:rgb(206,200,192);"/>
        <path d="M460.543,327.502C458.604,339.302 451.874,335.92 450.515,341.504C448.643,349.195 440.784,345.565 443.595,337.531C445.191,332.97 456.727,329.348 450.423,323.58C448.704,322.006 444.222,321.384 441.727,324.687C441.388,325.136 438.209,329.345 434.841,326.116C429.35,320.853 448.332,307.705 458.092,319.826C460.696,323.06 460.179,323.305 460.543,327.502Z" style="fill:rgb(253,250,247);"/>
        <path d="M458.865,587.131C458.623,587.793 457.495,587.838 457.253,588.5C457.115,588.877 466.24,600.168 467.045,601.164C458.222,611.371 457.886,614.724 451.766,611.07C444.407,606.676 446.657,602.049 447.038,601.266C451.001,593.116 445.708,592.144 446.838,589.646C446.971,589.352 451.761,583.738 452.46,583.428C454.528,582.509 457.206,585.689 458.865,587.131Z" style="fill:rgb(251,250,247);"/>
        <path d="M253.89,308.519C254.088,308.966 254.781,309.053 254.979,309.5C257.74,315.74 257.174,352.525 260.501,360.516C255.903,361.522 255.914,361.456 255.535,361.602C251.472,363.163 252.644,359.242 252.564,358.496C251.276,346.605 247.003,329.939 248.464,327.476C252.712,320.318 252.347,318.536 253.89,308.519Z" style="fill:rgb(208,202,195);"/>
        <path d="M849.512,649.698C853.328,651.213 851.298,652.496 851.517,656.499C851.547,657.061 851.842,662.473 851.605,663.523C851.216,665.242 850.493,665.505 822.478,665.18C823.774,658.866 823.76,658.939 823.574,652.494C826.899,649.2 827.578,650.859 831.439,653.54C843.182,661.696 844.561,654.895 849.512,649.698Z" style="fill:rgb(206,200,193);"/>
        <path d="M745.956,462.117C745.594,467.658 735.536,503.901 734.535,507.51C732.525,514.754 730.016,512.184 722.506,512.452C722.303,512.459 718.7,512.588 721.177,510.277C728.576,503.374 743.017,465.593 744.56,461.555C744.965,460.497 745.219,461.293 745.956,462.117Z" style="fill:rgb(224,105,24);"/>
        <path d="M299.082,330.497C298.984,326.588 298.918,320.361 298.908,319.479C298.785,307.93 295.186,295.511 302.43,297.756C306.444,299.001 305.97,306.132 306.003,306.532C308.231,333.068 307.622,333.699 305.584,334.651C299.86,337.324 299.152,331.11 299.082,330.497Z" style="fill:rgb(246,120,31);"/>
        <path d="M231.744,376.513C230.761,375.617 230.77,374.985 229.629,375.766C223.379,380.044 224.754,389.051 224.938,390.256C224.181,390.32 223.785,391.436 223.028,391.5C222.077,391.58 222.472,391.114 221.814,389.348C220.803,386.632 219.078,386.452 222.218,377.711C223.578,377.403 223.747,377.729 224.609,376.594C231.272,367.815 246.163,367.017 247.192,367.941C248.618,369.221 243.775,370.206 243.428,370.277C235.173,371.957 230.007,384.082 233.782,391.353C238.769,400.96 243.508,398.157 248.502,397.558C255.395,396.732 243.169,403.636 237.53,400.431C222.791,392.057 230.761,378.219 231.744,376.513Z" style="fill:rgb(182,177,170);"/>
        <path d="M844.493,611.614C846.464,632.042 839.973,639.764 838.395,641.64C835.524,639.148 835.585,639.102 835.295,638.949C833.689,638.101 827.906,640.678 830.66,633.561C838.344,613.706 838.446,612.465 844.493,611.614Z" style="fill:rgb(251,250,248);"/>
        <path d="M826.932,619.497C827.467,623.584 827.528,623.499 828.829,627.382C829.715,630.028 824.77,635.519 827.903,642.322C831.901,651.004 839.489,650.239 849.512,649.698C844.561,654.895 843.182,661.696 831.439,653.54C827.578,650.859 826.899,649.2 823.574,652.494C823.546,635.716 822.887,626.323 824.513,621.5C826.781,620.557 826.817,620.636 826.963,620.482C827.188,620.243 826.707,619.736 826.932,619.497Z" style="fill:rgb(199,194,186);"/>
        <path d="M859.619,553.38C865.977,559.96 865.273,575.086 853.532,575.163C850.424,570.092 851.144,569.793 848.5,564.5C852.665,557.138 851.625,555.604 856.532,554.594C858.909,554.105 859.108,553.581 859.619,553.38Z" style="fill:rgb(201,194,185);"/>
        <path d="M671.556,516.297C673.904,522.384 680.444,521.371 686.288,528.386C683.935,533.459 684.173,537.86 680.138,533.875C657.436,511.458 651.591,513.719 651.279,511.539C651.044,509.89 652.347,511.132 671.556,516.297Z" style="fill:rgb(243,116,26);"/>
        <path d="M645.11,492.414C644.173,497.483 644.245,504.973 639.581,503.256C631.136,500.148 634.696,497.317 636.41,488.478C638.401,478.207 639.16,478.402 639.479,478.39C640.077,478.368 646.565,478.132 646.657,480.492C646.678,481.041 646.639,481.032 645.11,492.414Z" style="fill:rgb(242,115,26);"/>
        <path d="M608.289,487.864C597.82,482.485 597.704,482.526 597.233,481.626C595.374,478.072 611.219,479.215 613.505,479.245C618.171,479.307 620.925,478.027 619.773,482.548C618.794,486.395 622.55,487.676 621.284,493.426C621.041,494.53 620.134,494.729 608.289,487.864Z" style="fill:rgb(249,249,247);"/>
        <path d="M661.829,309.633C661.771,309.746 660.055,317.024 652.512,314.466C647.151,312.648 645.963,297.899 654.461,298.768C656.85,299.013 662.554,300.368 663.199,301.661C664.151,303.57 661.867,309.515 661.829,309.633Z" style="fill:rgb(245,245,244);"/>
        <path d="M241.508,172.474C242.425,173.277 242.47,173.268 242.43,174.532C242.34,177.381 241.353,177.112 238.47,176.689C229.452,175.366 220.156,186.49 224.86,197.324C226.976,202.196 230.615,202.092 227.54,206.393C213.41,196.376 218.376,169.549 241.508,172.474Z" style="fill:rgb(249,247,245);"/>
        <path d="M597.77,398.524C601.872,402.509 602.679,404.797 617.373,405.437C616.655,413.884 614.769,415.221 606.611,413.101C591.263,409.112 595.779,403.428 596.462,401.486C596.694,400.826 597.661,398.759 597.77,398.524Z" style="fill:rgb(236,111,28);"/>
        <path d="M268.557,261.067C292.284,263.248 292.404,266.803 291.256,268.326C289.221,271.024 267.123,264.59 265.085,263.997C260.294,262.602 243.946,259.444 247.609,257.825C247.892,257.7 261.878,260.478 268.557,261.067Z" style="fill:rgb(219,216,211);"/>
        <path d="M654.553,365.546C651.436,370.074 651.71,370.663 646.465,372.327C641.935,373.765 650.995,365.904 645.538,358.477C643.088,355.142 646.429,356.067 650.516,355.643C656.207,355.054 657.93,354.818 658.351,360.515C658.405,361.258 658.644,361.521 654.553,365.546Z" style="fill:rgb(247,246,244);"/>
        <path d="M755.682,620.468C755.473,620.73 756.13,621.183 755.921,621.446C754.657,623.029 754.156,622.447 753.027,624.233C752.425,625.186 752.087,625.721 747.02,636.984C745.257,634.808 745.317,634.616 742.566,634.258C739.437,633.852 744.236,626.274 749.755,619.703C749.901,619.53 757.778,609.269 756.256,614.48C755.377,617.492 755.29,617.425 755.682,620.468Z" style="fill:rgb(248,248,246);"/>
        <path d="M297.238,206.453C297.4,205.819 299,199.572 299.715,198.658C305.156,191.713 308.339,202.568 304.042,211.247C303.747,211.844 296.129,220.727 297.238,206.453Z" style="fill:rgb(247,247,246);"/>
        <path d="M288.039,320.491C287.854,315.047 286.686,308.225 290.537,307.794C297.76,306.985 297.052,323.645 293.475,324.405C288.951,325.366 288.138,321.018 288.039,320.491Z" style="fill:rgb(246,119,30);"/>
        <path d="M628.104,302.464C628.794,297.96 628.761,297.983 628.85,297.6C630.412,290.837 643.875,298.162 640.426,301.437C638.896,302.89 638.498,299.575 638.473,299.551C634.991,296.157 635.653,306.917 635.33,307.383C631.285,313.224 628.24,309.617 628.104,302.464Z" style="fill:rgb(245,245,244);"/>
        <path d="M788.429,635.435C785.71,637.886 785.343,639.888 782.713,637.249C782.168,636.703 773.514,628.019 779.508,628.157C781.141,628.195 784.026,633.424 786.226,631.202C789.143,628.254 794.866,620.46 797.302,623.639C798.428,625.109 797.575,625.858 788.429,635.435Z" style="fill:rgb(254,249,246);"/>
        <path d="M222.218,377.711C219.078,386.452 220.803,386.632 221.814,389.348C222.472,391.114 222.077,391.58 223.028,391.5C223.785,391.436 224.181,390.32 224.938,390.256C226.967,393.982 231.387,399.023 227.505,397.467C220.126,394.508 218.332,388.642 214.503,375.499C213.831,373.191 216.314,374.84 218.337,372.322C220.71,369.369 220.29,373.007 222.218,377.711Z" style="fill:rgb(238,236,234);"/>
        <path d="M755.682,620.468C756.303,622.988 756.198,622.965 754.743,640.528C754.687,641.205 752.361,645.953 747.02,636.984C752.087,625.721 752.425,625.186 753.027,624.233C754.156,622.447 754.657,623.029 755.921,621.446C756.13,621.183 755.473,620.73 755.682,620.468Z" style="fill:rgb(200,194,187);"/>
        <path d="M849.689,530.24C856.741,534.385 859.532,537.845 861.565,547.495C862.744,553.095 858.79,547.585 852.467,547.324C854.873,538.482 850.192,533.676 849.374,531.5C849.222,531.095 849.841,530.645 849.689,530.24Z" style="fill:rgb(205,199,192);"/>
        <path d="M316.426,314.501C316.515,316.1 318.849,326.134 312.555,325.193C311.514,325.037 308.85,324.639 309.207,312.468C309.272,310.216 315.21,304.921 316.426,314.501Z" style="fill:rgb(245,118,29);"/>
        <path d="M322.86,208.593C324.874,204.089 324.68,203.978 325.464,203.458C332.799,198.583 330.335,217.118 325.358,219.066C324.556,219.38 320.555,220.218 322.86,208.593Z" style="fill:rgb(247,247,246);"/>
        <path d="M256.769,198.615C250.826,211.708 242.962,211.505 236.474,209.85C237.535,209.269 237.315,208.892 238.5,208.74C240.977,208.423 243.798,206.305 244.203,206.001C249.248,202.214 247.583,195.768 256.769,198.615Z" style="fill:rgb(218,105,28);"/>
        <path d="M671.556,516.297C690.716,520.085 692.121,520.014 691.295,521.421C690.948,522.013 690.618,521.668 686.288,528.386C680.444,521.371 673.904,522.384 671.556,516.297Z" style="fill:rgb(210,97,25);"/>
        <path d="M859.619,553.38C859.108,553.581 858.909,554.105 856.532,554.594C851.625,555.604 852.665,557.138 848.5,564.5C846.372,564.187 846.421,564.227 844.327,564.546C845.649,545.224 856.966,551.736 859.619,553.38Z" style="fill:rgb(249,247,245);"/>
        <path d="M562.436,553.682C562.648,553.497 562.861,553.312 563.074,553.127C563.156,551.812 563.711,551.41 562.935,544.505C561.496,531.693 567.782,547.549 564.819,554.625C563.235,558.408 564.291,558.503 564.491,562.54C563.972,562.888 563.453,563.236 562.933,563.584C559.836,552.828 559.564,553.009 555.366,542.567C553.751,538.548 556.219,539.434 556.401,539.607C557.292,540.448 556.732,540.764 562.436,553.682Z" style="fill:rgb(155,150,146);"/>
        <path d="M645.477,339.144C643.14,339.04 642.841,338.809 642.613,336.487C642.423,334.548 637.984,333.404 636.655,334.763C634.029,337.449 632.36,328.522 637.383,330.747C643.636,333.516 654.849,329.623 650.668,336.616C649.794,338.076 645.926,339.033 645.477,339.144Z" style="fill:rgb(245,245,244);"/>
        <path d="M660.131,372.552C661.779,379.676 665.664,386.708 662.671,385.106C661.338,384.393 657.851,371.455 655.953,375.977C655.76,376.437 642.957,406.28 651.709,380.536C653.56,375.091 655.053,369.307 657.623,366.631C660.016,364.141 659.686,367.571 660.131,372.552Z" style="fill:rgb(239,239,239);"/>
        <path d="M527.343,646.797C526.777,646.437 522.393,643.651 523.358,639.417C523.608,638.32 526.586,639.44 534.406,641.796C538.973,643.172 537.31,651.253 527.343,646.797Z" style="fill:rgb(247,246,244);"/>
        <path d="M371.879,349.505C371.713,350.253 372.356,351.804 369.461,352.179C363.356,352.969 362.879,354.622 357.818,351.037C354.862,348.944 355.967,347.205 359.532,346.94C368.175,346.295 371.411,345.212 371.879,349.505Z" style="fill:rgb(248,248,247);"/>
        <path d="M597.77,398.524C598.916,392.415 601.251,398.299 607.544,400.373C611.887,401.804 611.869,401.789 616.482,401.788C619.009,401.787 617.986,403.035 617.373,405.437C602.679,404.797 601.872,402.509 597.77,398.524Z" style="fill:rgb(246,242,239);"/>
        <path d="M435.109,435.445C434.856,436.388 430.754,451.699 426.774,444.365C425.694,442.376 435.935,419.557 435.109,435.445Z" style="fill:rgb(245,245,244);"/>
        <path d="M629.464,477.832C641.398,481.539 625.844,491.22 622.94,484.331C622.691,483.741 622.686,481.581 624.68,479.696C626.64,477.843 626.779,478.142 629.464,477.832Z" style="fill:rgb(249,249,249);"/>
        <path d="M332.855,338.359C333.582,340.378 337.56,346.844 333.394,348.156C332.531,348.428 327.801,350.658 328.203,347.498C328.329,346.504 328.596,345.531 328.743,344.54C329.798,337.42 329.337,333.301 329.522,332.512C330.285,329.264 332.709,337.841 332.855,338.359Z" style="fill:rgb(205,200,194);"/>
        <path d="M291.776,393.74C310.477,388.369 311.586,386.864 311.537,388.498C311.535,388.577 309.638,392.693 307.291,394.139C306.285,394.759 305.768,395.078 292.566,395.237C290.945,395.256 290.995,394.638 291.006,394.5C291.035,394.141 291.747,394.1 291.776,393.74Z" style="fill:rgb(237,236,235);"/>
        <path d="M442.032,353.377C442.312,352.761 445.49,345.765 450.316,351.639C455.535,357.991 441.363,364.834 442.032,353.377Z" style="fill:rgb(253,249,246);"/>
        <path d="M608.551,475.443C613.566,466.077 615.331,466.429 615.572,453.515C615.688,447.339 618.908,454.578 617.681,461.52C614.901,477.237 611.444,476.104 608.551,475.443Z" style="fill:rgb(228,103,21);"/>
        <path d="M460.783,433.541C460.214,435.584 459.652,441.878 454.371,445.254C449.433,448.412 452.34,443.658 452.449,443.48C453.099,442.417 459.235,424.108 460.861,431.388C460.861,431.388 460.789,433.369 460.783,433.541Z" style="fill:rgb(241,241,241);"/>
        <path d="M418.597,447.245C417.961,446.96 407.099,442.095 412.552,440.988C419.812,439.514 420.209,440.563 424.686,446.408C427.843,450.53 421.133,447.918 418.597,447.245Z" style="fill:rgb(216,213,209);"/>
        <path d="M806.482,551.198C802.533,552.311 798.644,556.329 800.321,551.443C803.141,543.226 816.248,548.55 814.173,554.407C812.399,559.411 811.737,552.069 806.482,551.198Z" style="fill:rgb(246,246,245);"/>
        <path d="M782.721,548.393C784.886,556.971 779.244,548.309 776.502,548.273C774.449,548.247 772.301,550.726 772.025,551.045C767.556,556.202 769.029,543.261 777.521,544.323C781.327,544.8 782.72,548.391 782.721,548.393Z" style="fill:rgb(246,246,246);"/>
        <path d="M675.203,349.147C675.098,349.659 676.103,349.988 675.998,350.5C675.927,350.846 671.468,355.898 670.091,357.089C665.716,360.869 661.57,360.514 661.427,360.514C661.054,358.255 660.583,357.804 662.598,356.712C669.107,353.182 668.65,352.618 675.203,349.147Z" style="fill:rgb(203,195,189);"/>
        <path d="M875.448,273.031C887.802,274.455 860.825,280.337 859.569,278.45C857.626,275.533 869.877,274.073 875.448,273.031Z" style="fill:rgb(20,19,18);"/>
        <path d="M439.317,446.333C433.888,451.072 433.547,447.06 433.767,446.673C439.201,437.125 438.521,436.488 439.456,436.398C443.183,436.041 442.937,438.196 442.9,438.518C442.635,440.842 439.673,445.744 439.317,446.333Z" style="fill:rgb(245,245,244);"/>
        <path d="M247.58,102.263C255.331,104.473 250.664,110.343 250.501,110.501C246.168,114.69 243.362,109.436 243.076,108.9C247.115,104.235 247.433,102.888 247.58,102.263Z" style="fill:rgb(244,114,28);"/>
        <path d="M381.478,351.307C376.667,351.358 374.422,352.356 374.924,347.537C375.297,343.953 397.367,347.756 381.478,351.307Z" style="fill:rgb(245,244,242);"/>
        <path d="M458.865,587.131C463.759,591.774 463.838,591.608 468.668,596.355C470.418,598.076 467.62,600.427 467.045,601.164C466.24,600.168 457.115,588.877 457.253,588.5C457.495,587.838 458.623,587.793 458.865,587.131Z" style="fill:rgb(209,202,195);"/>
        <path d="M844.327,564.546C846.421,564.227 846.372,564.187 848.5,564.5C851.144,569.793 850.424,570.092 853.532,575.163C852.407,575.172 844.553,575.237 844.327,564.546Z" style="fill:rgb(244,123,35);"/>
        <path d="M666.916,385.526C669.766,380.058 672.031,373.381 674.158,376.699C677.261,381.54 676.622,381.968 676.23,382.23C675.51,382.712 669.204,386.017 668.46,386.306C668.331,386.356 668.345,386.248 666.916,385.526Z" style="fill:rgb(245,245,245);"/>
        <path d="M653.822,294.379C652.721,291.403 653.389,290.431 656.455,290.895C667.904,292.627 667.035,297.634 666.857,298.657C665.557,298.951 665.628,299.045 664.314,298.937C664.112,298.47 664.766,297.898 664.563,297.432C663.795,295.665 654.708,294.493 653.822,294.379Z" style="fill:rgb(13,13,12);"/>
        <path d="M316.863,361.496C317.533,355.948 320.418,358.921 320.529,360.497C321.236,370.536 322.008,372.69 320.402,373.128C317.268,373.982 316.944,362.273 316.863,361.496Z" style="fill:rgb(231,226,221);"/>
        <path d="M843.567,348.374C853.922,345.714 853.565,353.42 849.458,354.303C846.364,354.968 846.315,354.818 843.449,353.385C843.723,350.85 843.782,350.912 843.567,348.374Z" style="fill:rgb(227,222,216);"/>
        <path d="M790.507,561.175C793.116,560.819 799.542,558.564 797.032,562.143C793.497,567.184 779.362,562.653 783.259,559.205C785.239,557.453 785.184,560.271 790.507,561.175Z" style="fill:rgb(242,242,241);"/>
        <path d="M861.332,253.349C858.828,256.094 851.431,265.152 851.249,260.53C851.159,258.24 864.021,244.807 862.633,251.532C862.597,251.707 862.536,251.666 861.332,253.349Z" style="fill:rgb(14,14,13);"/>
        <path d="M450.598,439.523C446.147,450.611 443.17,448.193 442.891,447.359C442.624,446.563 443.428,446.801 446.516,437.509C446.966,436.157 449.182,436.799 449.41,436.865C451.597,437.499 450.614,438.911 450.598,439.523Z" style="fill:rgb(242,242,241);"/>
        <path d="M693.164,325.189C687.85,328.526 691.131,323.32 691.141,322.475C691.189,318.161 690.614,317.383 694.556,315.612C699.225,313.515 700.766,318.41 698.499,318.29C694.685,318.089 693.949,318.659 694.186,322.505C694.27,323.869 693.93,323.734 693.164,325.189Z" style="fill:rgb(26,24,22);"/>
        <path d="M359.679,370.367C355.394,365.419 355.398,365.078 355.404,364.497C355.479,357.651 362.85,368.056 363.26,368.636C363.987,369.662 363.726,377.365 359.679,370.367Z" style="fill:rgb(245,245,245);"/>
        <path d="M361.664,357.326C368.299,364.111 365.205,365.467 364.537,365.337C364.301,365.291 357.386,358.817 356.772,358.242C356.503,357.99 356.325,355.291 357.531,354.674C358.437,354.21 358.382,354.799 361.664,357.326Z" style="fill:rgb(244,244,243);"/>
        <path d="M873.609,521.621C874.071,521.205 879.073,516.697 879.525,516.58C886.397,514.81 874.311,526.025 872.467,526.318C868.598,526.934 873.344,521.903 873.609,521.621Z" style="fill:rgb(15,15,14);"/>
        <path d="M833.821,488.145C839.364,493.446 832.98,499.123 828.179,493.78C831.067,489.49 831.583,490.012 833.821,488.145Z" style="fill:rgb(246,124,33);"/>
        <path d="M346.829,386.988C353.035,384.008 353.453,384.167 359.63,387.262C359.299,391.747 356.753,387.748 352.505,388.592C349.394,389.211 349.433,388.677 346.829,386.988Z" style="fill:rgb(244,243,241);"/>
        <path d="M627.918,493.504C627.936,493.258 628.108,490.846 628.463,490.472C628.74,490.18 631.871,488.68 632.439,488.788C633.616,489.012 632.079,496.045 631.944,496.662C631.856,497.062 628.845,500.645 627.918,493.504Z" style="fill:rgb(241,241,241);"/>
        <path d="M543.643,502.744C543.123,497.243 539.26,490.736 539.315,488.467C539.546,478.81 546.042,501.415 546.392,502.632C545.476,502.669 544.559,502.706 543.643,502.744Z" style="fill:rgb(166,164,160);"/>
        <path d="M886.382,536.025C885.702,536.178 878.396,537.828 877.747,537.237C874.207,534.012 894.014,530.815 889.11,535.063C889.11,535.063 886.601,535.948 886.382,536.025Z" style="fill:rgb(18,18,17);"/>
        <path d="M451.814,431.524C451.787,431.653 452.155,434.903 448.357,433.797C444.511,432.677 450.724,421.004 451.759,428.465C451.793,428.707 451.763,428.691 451.814,431.524Z" style="fill:rgb(239,239,239);"/>
        <path d="M657.269,307.401C652.424,315.508 651.573,301.907 655.533,301.807C658.752,301.726 657.388,306.948 657.269,307.401Z" style="fill:rgb(13,12,11);"/>
        <path d="M863.461,263.426C865.164,262.432 865.303,262.411 865.483,262.383C871.736,261.428 859.098,271.097 857.694,268.395C857.081,267.217 862.937,263.737 863.461,263.426Z" style="fill:rgb(31,29,28);"/>
        <path d="M444.191,430.472C443.104,437.366 439.124,433.436 439.507,431.501C440.086,428.571 443.862,423.38 444.191,430.472Z" style="fill:rgb(243,243,243);"/>
        <path d="M247.38,143.178C247.109,143.289 238.672,146.747 244.246,141.288C247.766,137.84 252.366,141.115 250.258,142.173C249.35,142.629 248.288,142.722 247.38,143.178Z" style="fill:rgb(164,157,149);"/>
        <path d="M653.255,254.678C654.858,259.761 655.429,259.452 657.064,264.484L656.527,265.192C650.846,260.039 650.483,254.713 653.255,254.678Z" style="fill:rgb(165,163,160);"/>
        <path d="M653.822,294.379C654.708,294.493 663.795,295.665 664.563,297.432C664.766,297.898 664.112,298.47 664.314,298.937C659.071,296.947 659.058,297.323 653.715,295.923L653.822,294.379Z" style="fill:rgb(135,135,131);"/>
        <path d="M564.491,562.54C564.824,562.615 577.715,565.553 567.513,565.539C567.263,565.539 567.328,565.658 564.453,566.189C562.917,566.473 563.434,565.612 562.933,563.584C563.453,563.236 563.972,562.888 564.491,562.54Z" style="fill:rgb(230,230,229);"/>
        <path d="M320.49,397.487C325.294,400.135 324.298,401.568 329.272,403.749C333.557,405.627 323.987,407.214 320.49,397.487Z" style="fill:rgb(41,40,36);"/>
        <path d="M864.922,513.692C866.263,511.447 866.155,511.345 866.368,511.271C870.768,509.745 865.721,518.186 865.45,518.439C860.617,522.953 864.76,514.039 864.922,513.692Z" style="fill:rgb(74,72,69);"/>
        <path d="M247.58,102.263C247.433,102.888 247.115,104.235 243.076,108.9C240.502,102.889 246.941,102.32 247.58,102.263Z" style="fill:rgb(236,228,218);"/>
        <path d="M833.821,488.145C831.583,490.012 831.067,489.49 828.179,493.78C826.253,489.356 829.277,486.105 833.821,488.145Z" style="fill:rgb(235,221,204);"/>
        <path d="M864.55,290.353C864.266,290.245 861.25,289.098 861.18,288.588C860.897,286.515 863.331,287.091 863.546,287.142C863.808,287.204 876.838,292.737 864.55,290.353Z" style="fill:rgb(24,24,23);"/>
        <path d="M836.177,414.562C836.116,414.247 835.055,408.77 837.338,410.715C837.994,411.274 839.322,415.363 838.943,416.74C837.956,420.331 836.26,414.832 836.177,414.562Z" style="fill:rgb(115,110,106);"/>
        <path d="M836.834,438.574C838.096,433.999 839.033,434.491 839.328,434.711C841.489,436.324 836.073,447.035 836.834,438.574Z" style="fill:rgb(95,91,86);"/>
        <path d="M240.844,240.555C243.214,243.522 243.512,243.075 246.497,245.475C246.135,246.14 245.773,246.805 245.412,247.469C242.367,243.995 239.398,245.009 240.844,240.555Z" style="fill:rgb(129,124,120);"/>
        <path d="M837.931,426.486C837.963,426.2 838.612,420.54 840.174,423.677C840.449,424.229 840.63,427.509 840.364,428.439C840.296,428.679 838.549,430.776 837.931,426.486Z" style="fill:rgb(115,111,106);"/>
        <path d="M825.584,386.443C825.73,386.706 828.123,391.052 825.532,390.208C822.784,389.314 821.287,381.497 825.584,386.443Z" style="fill:rgb(104,100,97);"/>
        <path d="M835.726,449.643C833.148,452.503 833.042,449.241 833.813,447.648C838.042,438.923 835.809,449.438 835.726,449.643Z" style="fill:rgb(93,90,85);"/>
        <path d="M831.514,457.508C826.485,463.781 829.552,455.793 829.676,455.622C829.799,455.451 833.444,452.68 831.514,457.508Z" style="fill:rgb(102,98,95);"/>
        <path d="M823.494,464.495C826.357,461.492 826.349,464.265 826.329,464.491C826.155,466.44 821.571,469.163 823.494,464.495Z" style="fill:rgb(86,82,79);"/>
        <path d="M630.237,382.334C630.134,382.492 625.703,388.104 627.977,381.651C628.04,381.473 630.76,376.765 630.237,382.334Z" style="fill:rgb(206,205,204);"/>
        <path d="M834.839,403.389C835.324,408.474 831.686,404.283 832.198,402.345C832.64,400.67 834.696,403.212 834.839,403.389Z" style="fill:rgb(122,117,111);"/>
        <path d="M831.478,396.512C832.133,401.908 828.243,397.175 828.93,395.72C829.616,394.268 831.341,396.348 831.478,396.512Z" style="fill:rgb(119,114,111);"/>
        <path d="M323.458,377.423C327.617,376.494 325.404,379.04 325.242,379.156C325.081,379.272 317.76,382.268 323.458,377.423Z" style="fill:rgb(180,177,172);"/>
        <path d="M749.514,555.463C749.341,555.031 747.95,551.535 749.609,549.643C751.633,547.336 750.593,550.44 750.295,553.439C750.163,554.778 749.835,554.632 749.514,555.463Z" style="fill:rgb(73,72,68);"/>
        <path d="M742.807,636.698C747.148,639.738 745.318,641.282 744.457,640.952C741.876,639.964 742.163,639.371 742.807,636.698Z" style="fill:rgb(135,131,126);"/>
        <path d="M685.911,283.047C686.348,283.004 692.482,282.388 691.272,284.186C691.064,284.496 690.979,284.364 686.628,284.615C686.389,284.093 686.15,283.57 685.911,283.047Z" style="fill:rgb(90,90,88);"/>
        <path d="M642.21,327.928L641.39,329.242C636.704,328.868 638.327,326.947 638.609,326.869C638.898,326.79 638.872,326.947 642.21,327.928Z" style="fill:rgb(171,172,169);"/>
        <path d="M820.289,472.342C814.923,474.909 818.79,470.044 819.475,470.021C821.065,469.966 820.532,470.711 820.289,472.342Z" style="fill:rgb(127,121,118);"/>
        <path d="M511.508,564.494L512.567,564.637C512.562,564.943 512.46,564.884 511.755,568.375L510.426,568.181C510.573,566.809 510.678,566.909 511.508,564.494Z" style="fill:rgb(78,78,75);"/>
        <path d="M832.604,641.592L833.516,641.358C834.956,642.425 835.005,642.371 835.071,642.511C836.103,644.702 831.099,643.253 831.888,641.49C831.987,641.27 832.505,641.812 832.604,641.592Z" style="fill:rgb(119,117,112);"/>
        <path d="M343.075,376.952C343.63,378.711 344.278,379.527 342.493,379.551C341.21,379.569 341.773,378.961 341.779,377.661L343.075,376.952Z" style="fill:rgb(62,62,58);"/>
        <path d="M657.064,264.484C657.154,264.604 658.927,267 657.515,266.307C657.069,266.089 656.973,265.41 656.527,265.192L657.064,264.484Z" style="fill:rgb(42,42,39);"/>
        <path d="M642.21,327.928C644.276,329.747 641.512,329.264 641.39,329.242L642.21,327.928Z" style="fill:rgb(80,79,78);"/>
        <path d="M679.84,469.018C679.934,469.076 681.009,469.747 681.009,469.747C681.011,469.839 681.042,470.994 680.881,470.894C679.891,470.276 680.835,469.638 679.84,469.018Z" style="fill:rgb(234,110,30);"/>
    </g>
</svg>
