<?xml version="1.0" encoding="UTF-8" standalone="no"?>
<!DOCTYPE svg PUBLIC "-//W3C//DTD SVG 1.1//EN" "http://www.w3.org/Graphics/SVG/1.1/DTD/svg11.dtd">
<svg width="100%" height="100%" viewBox="0 0 388 419" version="1.1" xmlns="http://www.w3.org/2000/svg" xmlns:xlink="http://www.w3.org/1999/xlink" xml:space="preserve" xmlns:serif="http://www.serif.com/" style="fill-rule:evenodd;clip-rule:evenodd;stroke-linejoin:round;stroke-miterlimit:2;">
    <g transform="matrix(1,0,0,1,-122.930817,-397.52852)">
        <g transform="matrix(1.224609,0,0,1.224609,0,0)">
            <path d="M272.498,386.505C276.435,388.126 277.123,390.113 279.825,386.738C288.672,375.691 308.011,374.978 310.234,397.541C310.619,401.449 313.564,397.19 320.519,398.398C331.288,400.267 333.376,410.522 333.396,410.574C333.726,412.465 336.219,426.752 334.698,434.533C333.903,438.6 335.192,438.448 335.565,442.494C337.775,466.497 335.828,466.528 336.406,468.53C337.712,473.05 337.59,472.977 338.1,477.548C339.976,494.345 338.705,504.527 341.785,496.675C345.616,486.91 358.787,476.137 370.371,480.801C385.703,486.973 379.02,502.779 378.642,504.648C372.552,509.86 371.047,517.934 370.297,520.462C369.602,521.141 369.812,521.286 368.948,521.781C367.36,522.689 366.985,525.194 366.934,525.531C365.646,534.124 358.259,544.572 359.006,548.597C361.491,561.987 357.111,561.953 358.039,565.631C359.303,570.638 363.015,563.322 373.235,568.75C380.309,574.159 380.056,574.331 386.7,580.278C411.463,602.444 422.503,608.197 413.398,612.052C409.168,610.809 409.692,609.975 403.443,604.571C374.712,579.726 370.546,573.86 370.464,577.492C369.727,610.158 335.256,623.547 324.502,624.515C318.419,625.062 323.523,628.083 325.177,629.788C345.668,652.117 349.208,655.487 351.424,657.596C353.372,659.873 353.61,659.627 354.894,662.413C354.892,662.435 355.709,665.277 352.43,666.184C347.851,667.45 348.414,664.77 314.814,629.204C309.007,623.057 312.72,616.95 309.244,614.979C302.899,611.381 303.198,611.076 298.248,605.773C296.134,599.471 294.828,600.338 288.436,598.738C278.518,596.254 268.933,588.133 264.945,582.17C262.05,577.84 260.851,582.024 258.367,584.36C242.449,599.33 227.641,600.809 216.496,602.868C214.293,602.989 212.843,601.683 212.147,605.437C209.082,621.95 193.779,622.245 192.493,622.29C187.199,622.472 188.072,625.092 187.02,627.258C181.687,638.237 169.371,654.159 166.466,655.432C158.912,658.741 158.131,654.362 117.356,612.639C102.512,597.451 99.026,595.257 100.811,589.595C102.727,583.518 124.465,573.593 130.421,571.375C134.694,569.213 133.258,568.101 134.153,563.438C137.262,547.254 151.68,549.504 151.276,545.519C147.253,505.811 160.673,506.044 166.519,473.504C170.22,452.906 162.121,414.965 196.52,420.986C198.906,421.404 198.222,415.93 198.217,414.402C198.471,412.793 198.54,411.157 198.794,409.548C200.7,397.48 210.185,388.04 223.504,388.332C241.092,388.718 245.218,405.453 245.611,406.395C246.233,406.734 245.871,407.369 247.477,407.414C247.551,407.416 247.792,407.423 248.364,407.182C248.771,407.011 254.173,405.459 254.593,404.55C256.428,400.573 255.316,400.306 257.012,396.252C259.839,389.496 265.937,387.975 272.498,386.505Z" style="fill:rgb(24,25,24);"/>
            <path d="M174.075,470.44C175.274,458.979 175.028,459.043 175.279,447.493C175.852,421.172 194.333,426.887 197.242,428.878C198.479,429.725 199.78,430.615 199.345,447.498C198.766,469.957 192.18,484.66 191.873,485.593C190.791,488.89 196.365,493.567 199.113,486.359C210.116,457.499 205.345,427.371 204.992,420.485C203.377,388.944 236.89,385.649 240.04,414.536C240.388,417.728 238.454,417.414 236.706,429.535C228.07,489.442 220.917,488.959 223.478,493.515C227.47,500.614 232.773,484.432 233.122,483.368C239.898,462.688 243.148,432.506 243.771,428.547C247.55,404.541 262.021,411.587 267.118,418.739C272.408,426.161 272.284,452.829 267.268,477.445C260.401,511.141 254.045,513.092 253.859,518.51C253.662,524.258 258.686,517.15 258.933,516.8C277.267,490.86 294.594,504.103 297.783,512.381C304.388,529.525 284.276,535.184 275.758,543.763C263.742,555.867 262.615,589.098 220.532,594.825C209.866,596.277 210.557,593.223 208.097,589.775C207.849,589.427 197.323,578.078 203.103,591.675C212.697,614.242 190.583,618.292 189.695,613.461C189.334,611.493 187.287,600.351 179.137,590.785C153.705,560.93 138.949,572.933 140.792,564.544C144.038,549.764 161.584,556.387 162.152,553.395C162.576,551.169 157.852,551.805 157.375,537.506C156.41,508.636 166.143,510.474 174.075,470.44Z" style="fill:rgb(248,245,244);"/>
            <path d="M198.217,414.402C198.222,415.93 198.906,421.404 196.52,420.986C162.121,414.965 170.22,452.906 166.519,473.504C160.673,506.044 147.253,505.811 151.276,545.519C151.68,549.504 137.262,547.254 134.153,563.438C133.258,568.101 134.694,569.213 130.421,571.375C128.538,569.017 117.9,565.781 122.317,553.426C127.568,538.737 165.811,522.753 126.206,495.965C124.453,494.78 102.698,483.701 113.67,471.659C122.452,462.022 170.658,471.739 156.544,427.486C154.255,420.309 145.933,401.117 160.465,398.308C169.758,396.513 178.923,408.935 195.519,414.427C196.975,414.909 197.191,415.633 198.217,414.402Z" style="fill:rgb(244,71,26);"/>
            <path d="M413.398,612.052C408.209,635.823 359.317,667.397 355.077,663.416C354.829,663.184 355.142,662.646 354.894,662.413C353.61,659.627 353.372,659.873 351.424,657.596C352.872,656.737 352.833,656.708 354.487,656.678C354.793,656.673 357.065,656.161 357.191,656.082C359.276,654.776 358.451,653.31 337.631,632.356C332.575,627.268 331.803,627.201 325.177,629.788C323.523,628.083 318.419,625.062 324.502,624.515C335.256,623.547 369.727,610.158 370.464,577.492C370.546,573.86 374.712,579.726 403.443,604.571C409.692,609.975 409.168,610.809 413.398,612.052Z" style="fill:rgb(206,213,221);"/>
            <path d="M270.18,567.334C270.366,566.948 272.159,563.227 272.463,562.484C273.256,560.542 273.987,558.575 274.836,556.657C281.318,542.008 300.228,540.823 304.622,525.538C308.671,511.453 299.753,504.846 302.496,503.494C308.001,500.781 307.742,508.103 317.457,509.745C325.986,511.187 325.96,509.89 333.614,505.834C334.843,505.183 336.066,508.825 335.051,510.222C328.497,519.253 328.847,519.401 328.116,520.025C307.443,537.675 318.924,559.017 327.76,563.022C345.775,571.187 349.241,553.751 352.757,555.088C355.156,556 344.777,597.725 298.471,593.895C298.903,593.507 299.019,594.415 299.492,593.991C300.349,593.223 299.695,592.849 300.5,592.076C300.813,591.776 301.406,592.035 301.773,591.803C305.631,589.361 291.425,586.923 286.811,584.052C275.484,577.004 275.474,573.064 273.38,569.598C272.671,568.424 271.511,568.83 271.5,568.824C270.929,568.485 270.751,567.672 270.18,567.334Z" style="fill:rgb(205,212,220);"/>
            <path d="M333.396,410.574C341.263,409.333 353.484,395.899 362.465,398.634C380.232,404.044 360.914,428.336 360.437,444.494C359.559,474.23 405.44,461.942 404.803,482.521C404.718,485.261 404.58,489.695 378.642,504.648C379.02,502.779 385.703,486.973 370.371,480.801C358.787,476.137 345.616,486.91 341.785,496.675C338.705,504.527 339.976,494.345 338.1,477.548C337.59,472.977 337.712,473.05 336.406,468.53C335.828,466.528 337.775,466.497 335.565,442.494C335.192,438.448 333.903,438.6 334.698,434.533C336.219,426.752 333.726,412.465 333.396,410.574Z" style="fill:rgb(244,70,24);"/>
            <path d="M216.496,602.868C227.641,600.809 242.449,599.33 258.367,584.36C260.851,582.024 262.05,577.84 264.945,582.17C268.933,588.133 278.518,596.254 288.436,598.738C294.828,600.338 296.134,599.471 298.248,605.773C282.232,609.963 280.893,610.821 267.767,640.63C263.33,650.706 250.554,651.175 246.273,641.604C234.425,615.111 232.336,608.666 216.496,602.868Z" style="fill:rgb(244,72,25);"/>
            <path d="M370.297,520.462C372.336,534.875 378.093,536.993 388.137,551.731C391.105,556.084 390.219,564.876 383.426,567.317C378.118,569.224 374.947,567.552 374.517,567.722C374.008,567.923 373.744,568.549 373.235,568.75C363.015,563.322 359.303,570.638 358.039,565.631C357.111,561.953 361.491,561.987 359.006,548.597C358.259,544.572 365.646,534.124 366.934,525.531C366.985,525.194 367.36,522.689 368.948,521.781C369.812,521.286 369.602,521.141 370.297,520.462Z" style="fill:rgb(244,70,24);"/>
            <path d="M343.23,520.699C349.615,527.342 356.03,526.321 358.47,526.604C359.866,526.766 359.662,527.763 353.182,543.349C348.562,554.463 336.367,555.246 329.124,543.729C334.458,538.417 334.469,528.141 343.23,520.699Z" style="fill:rgb(206,214,222);"/>
            <path d="M367.639,487.125C378.341,490.77 371.776,501.216 371.114,502.268C362.433,516.081 365.07,518.26 361.482,519.457C353.527,522.109 347.231,515.544 346.352,514.627C348.017,512.553 348.096,512.61 348.15,512.387C348.584,510.586 351.835,497.107 360.731,492.957C364.831,491.044 366.931,492.646 367.639,487.125Z" style="fill:rgb(205,212,220);"/>
            <path d="M314.47,474.598C318.535,475.297 318.463,475.788 322.466,475.15C329.073,474.096 328.939,472.448 330.683,473.227C331.368,473.533 333.785,496.726 332.034,499.158C327.127,505.971 317.621,503.205 316.386,502.845C317.024,500.651 317.282,500.714 317.208,500.532C316.181,498.001 313.881,498.027 314.47,474.598Z" style="fill:rgb(205,212,221);"/>
            <path d="M295.499,386.503C296.332,386.821 301.675,388.858 303.161,394.602C305.851,404.993 301.115,409.354 300.415,417.491C300.058,421.648 300.891,425.605 290.448,423.674C289.759,421.384 284.051,402.406 290.818,393.783C292.592,391.522 295.777,393.132 295.499,386.503Z" style="fill:rgb(205,213,221);"/>
            <path d="M319.606,405.151C328.987,407.889 327.669,417.425 327.973,430.501C328.003,431.778 328.221,441.155 313.356,436.921C312.458,422.458 311.56,414.507 315.792,410.818C318.43,408.519 318.665,408.67 319.606,405.151Z" style="fill:rgb(204,212,220);"/>
            <path d="M314.482,443.569C318.506,444.012 318.448,444.285 322.524,443.624C323.909,443.399 327.171,442.162 327.53,442.188C329.166,442.303 329.693,442.886 330.227,462.505C330.321,465.937 324.33,472.027 313.365,467.794C313.968,466.724 314.842,466.942 314.398,464.506C314.098,462.859 311.482,448.515 314.482,443.569Z" style="fill:rgb(204,212,220);"/>
            <path d="M316.495,603.166C331.106,600.086 334.954,596.667 343.728,589.779C347.364,586.924 353.332,594.817 350.04,599.183C340.026,612.46 323.055,611.703 320.494,611.589C321.669,609.687 322.647,609.558 321.216,607.748C320.919,607.372 317.579,603.15 317.482,603.063C317.236,602.842 316.741,603.387 316.495,603.166Z" style="fill:rgb(206,214,222);"/>
            <path d="M292.627,467.007C301.719,467.154 303.769,465.076 303.674,468.507C303.54,473.36 300.975,473.309 303.156,494.54C303.708,499.919 292.355,496.947 291.432,496.706C291.535,492.379 290.708,480.941 290.907,470.509C290.939,468.792 291.297,468.992 292.627,467.007Z" style="fill:rgb(205,213,221);"/>
            <path d="M289.695,430.002C293.73,430.434 293.674,430.75 296.488,430.388C300.996,429.808 300.714,431.265 302.218,435.605C303.557,439.47 301.02,439.407 301.071,448.524C301.099,453.559 301.358,453.448 301.417,458.499C301.44,460.4 297.618,463.147 289.396,459.692C290.796,457.686 291.178,457.828 291.02,456.5C289.062,440.048 290.728,440.026 289.695,430.002Z" style="fill:rgb(204,212,220);"/>
            <path d="M338.291,373.381C337.956,373.945 335.822,379.693 331.541,378.384C326.848,376.951 329.39,372.085 329.651,371.584C342.908,346.204 343.411,346.079 345.521,345.822C346.207,345.738 352.3,346.302 349.079,353.274C348.314,354.931 348.025,354.742 338.291,373.381Z" style="fill:rgb(24,25,24);"/>
            <path d="M196.216,364.665C194.695,361.866 191.371,355.988 190.945,355.236C185.558,345.711 193.199,345.626 194.637,346.133C196.077,346.641 199.385,352.752 199.722,353.374C208.701,369.959 212.223,374.359 209.319,377.319C204.282,382.453 200.236,372.245 196.216,364.665Z" style="fill:rgb(24,25,24);"/>
            <path d="M275.499,325.501C278.764,329.185 277.304,358.004 276.178,359.223C273.602,362.011 268.874,360.697 268.804,356.48C268.32,327.276 268.321,326.732 270.43,325.41C273.235,323.65 275.128,325.346 275.499,325.501Z" style="fill:rgb(27,28,27);"/>
            <path d="M325.177,629.788C331.803,627.201 332.575,627.268 337.631,632.356C358.451,653.31 359.276,654.776 357.191,656.082C357.065,656.161 354.793,656.673 354.487,656.678C352.833,656.708 352.872,656.737 351.424,657.596C349.208,655.487 345.668,652.117 325.177,629.788Z" style="fill:rgb(250,250,251);"/>
            <path d="M270.18,567.334C270.751,567.672 270.929,568.485 271.5,568.824C271.511,568.83 272.671,568.424 273.38,569.598C275.474,573.064 275.484,577.004 286.811,584.052C291.425,586.923 305.631,589.361 301.773,591.803C301.406,592.035 300.813,591.776 300.5,592.076C299.695,592.849 300.349,593.223 299.492,593.991C299.019,594.415 298.903,593.507 298.471,593.895C291.788,592.664 281.451,591.396 272.008,579.944C267.177,574.085 267.17,573.287 270.18,567.334Z" style="fill:rgb(248,248,248);"/>
            <path d="M280.417,462.463C279.799,464.701 277.941,471.428 279.703,491.465C279.717,491.621 280.696,494.714 279.339,495.144C266.219,499.302 271.564,490.001 272.58,485.521C280.632,450.042 275.077,435.04 278.783,445.237C280.896,451.053 278.127,451.42 279.796,457.378C280.513,459.936 281,459.86 280.417,462.463Z" style="fill:rgb(194,202,209);"/>
            <path d="M295.499,386.503C295.777,393.132 292.592,391.522 290.818,393.783C284.051,402.406 289.759,421.384 290.448,423.674C289.587,423.247 283.135,420.041 282.719,414.472C282.375,409.853 278.935,384.348 295.499,386.503Z" style="fill:rgb(248,248,249);"/>
            <path d="M192.063,539.342C197.199,523.825 199.995,517.71 203.496,517.74C211.066,517.803 204.32,527.898 199.256,541.405C197.253,546.749 190.886,546.995 192.063,539.342Z" style="fill:rgb(190,189,189);"/>
            <path d="M218.215,544.329C217.363,545.808 213.135,556.775 208.528,551.478C205.584,548.093 217.31,527.926 220.376,527.111C223.781,526.206 226.866,529.269 224.015,534.197C219.953,541.215 219.942,541.153 218.215,544.329Z" style="fill:rgb(190,190,190);"/>
            <path d="M183.093,535.434C180.532,542.346 174.597,539.817 175.894,532.569C179.425,512.831 182.775,512.898 184.49,512.932C191.041,513.062 186.962,518.12 183.093,535.434Z" style="fill:rgb(193,193,193);"/>
            <path d="M367.639,487.125C366.931,492.646 364.831,491.044 360.731,492.957C351.835,497.107 348.584,510.586 348.15,512.387C348.096,512.61 348.017,512.553 346.352,514.627C344.278,511.033 342.97,508.993 345.258,503.4C353.232,483.909 365.478,486.643 367.639,487.125Z" style="fill:rgb(249,249,250);"/>
            <path d="M319.606,405.151C318.665,408.67 318.43,408.519 315.792,410.818C311.56,414.507 312.458,422.458 313.356,436.921C310.61,435.561 306.038,434.074 306.882,418.515C307.643,404.491 318.132,405.07 319.606,405.151Z" style="fill:rgb(248,248,248);"/>
            <path d="M271.425,393.984C279.194,396.112 275.143,399.279 275.956,410.454C276.658,420.107 279.764,419.803 278.424,429.445C277.316,428.65 277.366,428.651 276.706,427.436C275.684,413.398 266.245,408.385 265.381,407.733C265.513,407.56 266.606,407.55 266.858,405.801C266.88,405.647 267.342,403.643 267.385,403.455C268.612,398.12 272.044,399.076 271.425,393.984Z" style="fill:rgb(204,212,220);"/>
            <path d="M289.695,430.002C290.728,440.026 289.062,440.048 291.02,456.5C291.178,457.828 290.796,457.686 289.396,459.692C288.992,459.366 286.149,457.079 285.502,454.499C284.923,452.189 284.135,437.614 284.118,430.456C284.108,426.592 286.139,428.474 289.695,430.002Z" style="fill:rgb(248,248,249);"/>
            <path d="M292.627,467.007C291.297,468.992 290.939,468.792 290.907,470.509C290.708,480.941 291.535,492.379 291.432,496.706C290.624,496.36 287.271,495.96 286.388,491.525C285.58,487.473 285.427,472.137 285.501,469.5C285.639,464.524 287.812,465.606 292.627,467.007Z" style="fill:rgb(247,247,247);"/>
            <path d="M314.47,474.598C313.881,498.027 316.181,498.001 317.208,500.532C317.282,500.714 317.024,500.651 316.386,502.845C313.74,501.405 307.933,502.422 308.641,476.506C308.754,472.369 310.56,473.292 314.47,474.598Z" style="fill:rgb(247,247,247);"/>
            <path d="M343.23,520.699C334.469,528.141 334.458,538.417 329.124,543.729C328.691,542.615 328.635,542.702 328.283,541.563C327.655,539.535 325.755,533.389 337.874,516.818C340.498,513.23 340.577,517.068 343.23,520.699Z" style="fill:rgb(249,249,249);"/>
            <path d="M314.482,443.569C311.482,448.515 314.098,462.859 314.398,464.506C314.842,466.942 313.968,466.724 313.365,467.794C310.494,465.902 307.004,466.155 307.824,443.549C307.938,440.388 311.675,442.877 312.616,443.135C313.232,443.304 313.866,443.4 314.482,443.569Z" style="fill:rgb(247,247,247);"/>
            <path d="M316.495,603.166C316.741,603.387 317.236,602.842 317.482,603.063C317.579,603.15 320.919,607.372 321.216,607.748C322.647,609.558 321.669,609.687 320.494,611.589C319.976,611.473 313.167,610.966 307.557,606.436C306.067,605.233 303.927,602.35 304.509,601.505C306.982,597.91 307.751,603.085 316.495,603.166Z" style="fill:rgb(243,243,244);"/>
            <path d="M356.703,574.361C357.265,575.336 360.602,581.126 357.328,588.417C355.696,592.051 354.028,586.801 351.035,583.999C348.171,581.318 350.381,580.863 352.132,577.331C353.811,573.946 354.234,571.567 356.703,574.361Z" style="fill:rgb(200,209,218);"/>
            <path d="M268.506,385.369C269.208,385.589 269.039,386.051 272.498,386.505C265.937,387.975 259.839,389.496 257.012,396.252C255.316,400.306 256.428,400.573 254.593,404.55C254.173,405.459 248.771,407.011 248.364,407.182C247.792,407.423 247.551,407.416 247.477,407.414C245.871,407.369 246.233,406.734 245.611,406.395C258.998,395.643 254.269,386.848 268.506,385.369Z" style="fill:rgb(239,62,23);"/>
            <path d="M271.425,393.984C272.044,399.076 268.612,398.12 267.385,403.455C267.342,403.643 266.88,405.647 266.858,405.801C266.606,407.55 265.513,407.56 265.381,407.733C262.476,406.194 260.995,406.802 261.564,403.511C263.113,394.554 270.33,394.059 271.425,393.984Z" style="fill:rgb(247,247,247);"/>
            <path d="M268.506,385.369C270.631,385.742 270.514,385.825 272.498,386.505C269.039,386.051 269.208,385.589 268.506,385.369Z" style="fill:rgb(232,117,91);"/>
        </g>
    </g>
</svg>
